<svg width="32" height="20" viewBox="0 0 32 20" fill="none" xmlns="http://www.w3.org/2000/svg">
<path fill-rule="evenodd" clip-rule="evenodd" d="M20.8252 2.09855L19.965 4.25658C19.4267 5.60705 18.7316 6.7352 17.9259 7.67614H27.8666C28.1989 7.67467 28.5204 7.67524 28.8288 7.67614H29.6138H31.9388V7.67817H32V12.3239H29.675C29.484 12.3239 29.2921 12.3236 29.0995 12.3233C26.6207 12.3194 24.0207 12.3153 21.6777 12.9529C19.2925 13.6019 17.3936 14.8569 16.3551 17.4622L15.4949 19.6203L11.1748 17.9015L12.035 15.7434C12.5737 14.392 13.2694 13.2632 14.0758 12.3219H4.44908C3.92787 12.3263 3.43067 12.3247 2.96548 12.3232C2.74449 12.3225 2.53073 12.3219 2.32505 12.3219H0V7.67614H2.32505H4.07034C6.18581 7.66625 8.3455 7.58509 10.3223 7.04718C12.7075 6.39811 14.6064 5.1431 15.6449 2.5378L16.5051 0.379761L20.8252 2.09855Z" fill="url(#paint0_linear_176_1063)"/>
<defs>
<linearGradient id="paint0_linear_176_1063" x1="9.60612" y1="1.29668" x2="20.5431" y2="19.583" gradientUnits="userSpaceOnUse">
<stop offset="0.202508" stop-color="#74EFC2"/>
<stop offset="0.850495" stop-color="#4174F7"/>
</linearGradient>
</defs>
</svg>
